HIERARCHY
ROOT reference
{
  OFFSET 0 0 0
  CHANNELS 6 Xposition Yposition Zposition Zrotation Xrotation Yrotation
  JOINT Hips
  {
    OFFSET -5.25163 88.9066 69.809
    CHANNELS 6 Xposition Yposition Zposition Zrotation Xrotation Yrotation
    JOINT Spine
    {
      OFFSET 0 7.88368 0
      CHANNELS 6 Xposition Yposition Zposition Zrotation Xrotation Yrotation
      JOINT Spine1
      {
        OFFSET 0 24.7763 0
        CHANNELS 6 Xposition Yposition Zposition Zrotation Xrotation Yrotation
        JOINT Neck
        {
          OFFSET 0 24.6746 2.24314
          CHANNELS 6 Xposition Yposition Zposition Zrotation Xrotation Yrotation
          JOINT Head
          {
            OFFSET 0 13.4599 -1.92285
            CHANNELS 6 Xposition Yposition Zposition Zrotation Xrotation Yrotation
            End Site
            {
              OFFSET 0 24.0356 0
            }
          }
        }
        JOINT LeftShoulder
        {
          OFFSET 3.81022 22.3233 -0.325006
          CHANNELS 6 Xposition Yposition Zposition Zrotation Xrotation Yrotation
          JOINT LeftArm
          {
            OFFSET 12.5606 0 0
            CHANNELS 6 Xposition Yposition Zposition Zrotation Xrotation Yrotation
            JOINT LeftForeArm
            {
              OFFSET 28.8068 0 0
              CHANNELS 6 Xposition Yposition Zposition Zrotation Xrotation Yrotation
              JOINT LeftHand
              {
                OFFSET 23.8139 0 0
                CHANNELS 6 Xposition Yposition Zposition Zrotation Xrotation Yrotation
                End Site
                {
                  OFFSET 14.4214 0 0
                }
              }
            }
          }
        }
        JOINT RightShoulder
        {
          OFFSET -3.82306 22.3233 -0.325006
          CHANNELS 6 Xposition Yposition Zposition Zrotation Xrotation Yrotation
          JOINT RightArm
          {
            OFFSET -12.5606 0 0
            CHANNELS 6 Xposition Yposition Zposition Zrotation Xrotation Yrotation
            JOINT RightForeArm
            {
              OFFSET -28.8068 0 0
              CHANNELS 6 Xposition Yposition Zposition Zrotation Xrotation Yrotation
              JOINT RightHand
              {
                OFFSET -23.8139 0 0
                CHANNELS 6 Xposition Yposition Zposition Zrotation Xrotation Yrotation
                End Site
                {
                  OFFSET -14.4214 0 0
                }
              }
            }
          }
        }
      }
    }
    JOINT LeftUpLeg
    {
      OFFSET 9.61425 0 0
      CHANNELS 6 Xposition Yposition Zposition Zrotation Xrotation Yrotation
      JOINT LeftLeg
      {
        OFFSET 0 -41.4642 0
        CHANNELS 6 Xposition Yposition Zposition Zrotation Xrotation Yrotation
        JOINT LeftFoot
        {
          OFFSET 0 -34.276 0
          CHANNELS 6 Xposition Yposition Zposition Zrotation Xrotation Yrotation
          JOINT LeftToeBase
          {
            OFFSET 0 -6.24926 14.4214
            CHANNELS 6 Xposition Yposition Zposition Zrotation Xrotation Yrotation
            End Site
            {
              OFFSET 0 0 3.8457
            }
          }
        }
      }
    }
    JOINT RightUpLeg
    {
      OFFSET -9.61425 0 0
      CHANNELS 6 Xposition Yposition Zposition Zrotation Xrotation Yrotation
      JOINT RightLeg
      {
        OFFSET 0 -41.4642 0
        CHANNELS 6 Xposition Yposition Zposition Zrotation Xrotation Yrotation
        JOINT RightFoot
        {
          OFFSET 0 -34.276 0
          CHANNELS 6 Xposition Yposition Zposition Zrotation Xrotation Yrotation
          JOINT RightToeBase
          {
            OFFSET 0 -6.24926 14.4214
            CHANNELS 6 Xposition Yposition Zposition Zrotation Xrotation Yrotation
            End Site
            {
              OFFSET 0 0 3.8457
            }
          }
        }
      }
    }
  }
}
MOTION
Frames:	5
Frame Time:	0.004
0 0 0 0 0 -0 -15.7371 79.9031 -192.157 1.07627 -2.48935 1.60004 1.77636e-015 7.88368 0 -0.0163519 -1.59626 -0.381637 0 24.7763 0 -2.25223 -4.69071 -0.473668 0 24.6746 2.24314 8.47082 14.8504 -2.38486 2.22045e-015 13.4599 -1.92285 -0.125747 0.152466 -2.61279 3.81022 22.3233 -0.325006 13.0853 3.03155 7.25945 12.5606 2.84217e-014 0 -24.7671 -0.602384 -3.84484 28.8068 0 -2.84217e-014 2.69502 2.72175 -0.854318 23.8139 0 0 1.33858 2.72066 -1.81492 -3.82306 22.3233 -0.325006 -13.9088 -0.396748 10.1905 -12.5606 2.84217e-014 0 16.579 -4.2869 -4.34828 -28.8068 0 0 -2.87221 -3.00545 6.29881 -23.8139 0 0 -7.09061 -2.91793 1.35303 9.61425 -1.42109e-014 0 -0.0364915 9.85518 1.89579 8.88178e-016 -41.4642 0 -8.96233 -6.81869 1.77134 -1.77636e-015 -34.276 0 7.94359 -2.03051 14.8215 -7.10543e-015 -6.24926 14.4214 -1.49089e-016 3.97569e-016 -6.36111e-015 -9.61425 0 0 -2.37348 8.80425 4.73616 3.55271e-015 -41.4642 0 6.00834 -8.52372 3.06545 -3.55271e-015 -34.276 0 -5.85455 -1.62173 -10.4605 -3.55271e-015 -6.24926 14.4214 -2.48481e-017 -7.95139e-016 -7.95139e-016 
0 0 0 0 0 -0 -15.7371 79.9031 -192.157 1.08581 -2.49234 1.57948 0 7.88368 0 -0.0158534 -1.58996 -0.365187 0 24.7763 -2.84217e-014 -2.28134 -4.68081 -0.45816 0 24.6746 2.24314 8.48797 14.8198 -2.39634 4.21885e-015 13.4599 -1.92285 -0.1393 0.198417 -2.62926 3.81022 22.3233 -0.325006 13.0786 3.03155 7.25945 12.5606 0 2.84217e-014 -24.8182 -0.622353 -3.85082 28.8068 0 -2.84217e-014 2.73175 2.70922 -0.901693 23.8139 -2.84217e-014 0 1.43751 2.70751 -1.84865 -3.82306 22.3233 -0.325006 -13.9088 -0.396748 10.1905 -12.5606 2.84217e-014 -2.84217e-014 16.5695 -4.26979 -4.34818 -28.8068 0 0 -2.87125 -3.00534 6.317 -23.8139 -2.84217e-014 2.84217e-014 -7.01272 -2.91798 1.31655 9.61425 0 0 -0.0514993 9.85525 1.88305 1.77636e-015 -41.4642 0 -8.94322 -6.79409 1.75549 -1.77636e-015 -34.276 2.84217e-014 7.95416 -2.03787 14.8566 7.10543e-015 -6.24926 14.4214 4.96962e-017 1.98785e-016 -0 -9.61425 1.42109e-014 -2.84217e-014 -2.38778 8.81611 4.72977 3.55271e-015 -41.4642 2.84217e-014 6.01919 -8.54545 3.06562 3.55271e-015 -34.276 -2.84217e-014 -5.85053 -1.60586 -10.4228 0 -6.24926 14.4214 1.65521e-032 -7.95139e-016 1.19271e-015 
0 0 0 0 0 -0 -15.7402 79.9031 -192.157 1.08729 -2.50216 1.56654 1.77636e-015 7.88368 0 -0.015503 -1.57266 -0.356435 0 24.7763 0 -2.29448 -4.68362 -0.450014 0 24.6746 2.24314 8.50627 14.8196 -2.40231 -3.55271e-015 13.4599 -1.92285 -0.162987 0.196572 -2.63908 3.81022 22.3233 -0.325006 13.0626 3.03155 7.25945 12.5606 0 0 -24.8229 -0.637484 -3.86832 28.8068 2.84217e-014 2.84217e-014 2.73441 2.73041 -0.906914 23.8139 2.84217e-014 -2.84217e-014 1.45193 2.72846 -1.863 -3.82306 22.3233 -0.325006 -13.9088 -0.396748 10.1905 -12.5606 0 5.68434e-014 16.5612 -4.26576 -4.34816 -28.8068 -2.84217e-014 0 -2.86928 -3.00529 6.32551 -23.8139 0 0 -7.00847 -2.91802 1.2776 9.61425 0 0 -0.055462 9.85519 1.89421 -8.88178e-016 -41.4642 0 -8.93356 -6.78679 1.76112 3.55271e-015 -34.276 -2.84217e-014 7.94008 -2.0467 14.8616 -7.10543e-015 -6.24926 14.4214 9.93923e-017 3.97569e-016 -0 -9.61425 2.84217e-014 0 -2.38968 8.82767 4.72329 -3.55271e-015 -41.4642 2.84217e-014 6.02081 -8.5521 3.07038 0 -34.276 0 -5.84917 -1.60579 -10.403 7.10543e-015 -6.24926 14.4214 9.93923e-017 -1.59028e-015 -3.97569e-016 
0 0 0 0 0 -0 -15.7431 79.9031 -192.157 1.09573 -2.49554 1.55916 -1.77636e-015 7.88368 0 -0.0163213 -1.58024 -0.348955 0 24.7763 0 -2.31146 -4.67106 -0.44313 0 24.6746 2.24314 8.52146 14.8019 -2.40814 8.88178e-016 13.4599 -1.92285 -0.177944 0.213829 -2.64889 3.81022 22.3233 -0.325006 13.0627 3.02314 7.24698 12.5606 0 2.84217e-014 -24.8444 -0.635107 -3.84897 28.8068 -5.68434e-014 0 2.7405 2.73709 -0.943253 23.8139 0 2.84217e-014 1.46804 2.73589 -1.85557 -3.82306 22.3233 -0.325006 -13.9088 -0.396744 10.1937 -12.5606 0 0 16.5608 -4.24615 -4.34805 -28.8068 -2.84217e-014 0 -2.88212 -3.00519 6.34343 -23.8139 2.84217e-014 0 -6.94007 -2.92261 1.27027 9.61425 -1.42109e-014 0 -0.072135 9.84307 1.89381 -8.88178e-016 -41.4642 0 -8.91723 -6.78184 1.7992 3.55271e-015 -34.276 -2.84217e-014 7.95669 -2.04825 14.8233 0 -6.24926 14.4214 -4.96962e-017 1.98785e-016 -3.18055e-015 -9.61425 1.42109e-014 0 -2.40427 8.82064 4.71056 -3.55271e-015 -41.4642 0 6.03483 -8.55584 3.09246 0 -34.276 0 -5.85886 -1.60166 -10.399 3.55271e-015 -6.24926 14.4214 2.48481e-017 0 -3.97569e-016 
0 0 0 0 0 -0 -15.7458 79.9031 -192.157 1.09933 -2.49273 1.54955 1.77636e-015 7.88368 2.84217e-014 -0.0174566 -1.57858 -0.344785 3.55271e-015 24.7763 0 -2.33039 -4.67072 -0.439695 0 24.6746 2.24314 8.52971 14.8 -2.4136 6.66134e-016 13.4599 -1.92285 -0.186538 0.218451 -2.65605 3.81022 22.3233 -0.325006 13.0599 2.73849 7.04901 12.5606 2.84217e-014 0 -24.7923 -0.362377 -3.43773 28.8068 0 0 2.70959 2.70236 -1.08395 23.8139 2.84217e-014 2.84217e-014 1.49898 2.70382 -1.84767 -3.82306 22.3233 -0.325006 -13.9088 -0.396743 10.1948 -12.5606 0 2.84217e-014 16.562 -4.24168 -4.34803 -28.8068 -2.84217e-014 0 -2.89128 -2.99236 6.35767 -23.8139 0 0 -6.91132 -2.90695 1.24321 9.61425 -1.42109e-014 0 -0.0787342 9.8325 1.89388 1.77636e-015 -41.4642 0 -8.91846 -6.75975 1.81635 5.32907e-015 -34.276 -2.84217e-014 7.95545 -2.06677 14.8401 0 -6.24926 14.4214 -4.96962e-017 1.98785e-016 -3.18055e-015 -9.61425 -1.42109e-014 2.84217e-014 -2.41311 8.81908 4.70266 3.55271e-015 -41.4642 0 6.04448 -8.56418 3.08557 -3.55271e-015 -34.276 2.84217e-014 -5.84787 -1.59787 -10.3695 3.55271e-015 -6.24926 14.4214 -0 0 3.97569e-016 
